<svg xmlns="http://www.w3.org/2000/svg" width="512" height="512" viewBox="0 0 512 512" version="1.1">
	<path d="M 229 17.524 C 162.996 25.834, 96.403 66.476, 60.228 120.525 C 40.951 149.328, 28.175 181.613, 21.855 217.500 C 19.320 231.891, 18.304 264.592, 19.909 280.131 C 24.271 322.351, 40.996 366.037, 65.274 398.619 C 74.250 410.666, 91.181 428.476, 103.418 438.743 C 136.617 466.598, 183.022 486.367, 228.500 492.029 C 241.616 493.662, 274.357 493.355, 288.033 491.471 C 331.045 485.547, 375.976 465.586, 408.604 437.906 C 479.417 377.834, 507.234 286.263, 483.073 192.759 C 475.530 163.568, 460.106 132.207, 441.173 107.567 C 433.891 98.089, 415.464 79.525, 404.897 71.019 C 370.165 43.065, 333.081 26.026, 291.500 18.919 C 275.504 16.185, 245.034 15.505, 229 17.524 M 231.597 32.081 C 176.294 39.640, 122.117 69.213, 85.976 111.568 C 62.068 139.588, 44.171 177.791, 36.875 216.379 C 34.257 230.226, 33.195 264.296, 34.895 279.917 C 39.391 321.246, 57.136 363.945, 82.834 395.268 C 90.982 405.199, 110.772 424.286, 120.780 431.865 C 162.609 463.543, 221.511 481.211, 271.750 477.150 C 360.249 469.997, 436.354 411.975, 464.761 330 C 473.112 305.902, 476.364 285.007, 476.280 256 C 476.202 229.464, 472.904 208.753, 464.973 185 C 452.766 148.439, 435.117 120.553, 407.493 94.180 C 375.692 63.818, 337.329 43.473, 294.795 34.415 C 284.102 32.137, 279.634 31.753, 260.500 31.467 C 248.400 31.286, 235.393 31.562, 231.597 32.081 M 233.500 45.101 C 221.595 46.542, 204.287 50.638, 191.152 55.123 C 177.208 59.884, 154.920 70.726, 142.500 78.790 C 97.432 108.052, 65.031 152.964, 51.908 204.361 C 45.685 228.735, 44.070 263.230, 48.050 286.796 C 53.021 316.231, 65.587 347.256, 83.371 374 C 107.932 410.935, 144.476 438.135, 189.252 452.808 C 215.238 461.324, 231.879 464, 258.845 464 C 291.605 464, 317.869 458.001, 346.500 443.977 C 429.386 403.380, 475.133 317.206, 462.483 225.500 C 457.484 189.263, 441.649 152.898, 418.284 124 C 406.086 108.913, 385.412 90.380, 366.877 77.917 C 344.501 62.872, 316.505 51.342, 290.263 46.366 C 280.706 44.553, 244.662 43.750, 233.500 45.101 M 238.402 57.088 C 216.375 59.055, 195.382 65.219, 172.500 76.436 C 135.658 94.497, 106.799 119.672, 85.556 152.278 C 76.183 166.666, 66.642 188.897, 61.420 208.516 C 58.581 219.182, 55.011 242.013, 55.005 249.550 C 54.999 255.462, 56.180 257, 60.725 257 C 64.996 257, 65.542 255.532, 66.302 242 C 67.820 214.940, 78.098 182.754, 92.966 158.500 C 106.764 135.991, 130.533 113.198, 157.187 96.917 C 191.073 76.218, 230.819 66.211, 267.934 69.033 C 307.637 72.052, 339.369 84.676, 372.880 110.783 C 407.496 137.751, 428.645 171.427, 438.359 215.048 C 441.217 227.877, 443 240.819, 443 248.724 C 443 252.667, 443.505 254.505, 445 256 C 447.407 258.407, 448.840 258.501, 451.777 256.443 C 454.366 254.631, 454.583 251.268, 452.974 237.974 C 448.985 205.018, 437.211 172.331, 420.185 146.948 C 403.891 122.655, 376.181 96.982, 350.221 82.127 C 315.020 61.982, 277.547 53.591, 238.402 57.088 M 239.054 82.076 C 203.350 86.107, 169.691 100.815, 140.500 125.142 C 107.880 152.325, 86.335 190.749, 80.022 233 C 78.559 242.791, 78.546 266.381, 79.998 276.986 C 89.967 349.797, 146.053 410.061, 219.016 426.360 C 257.657 434.992, 297.710 429.835, 334.500 411.491 C 350.700 403.413, 363.206 394.513, 377.266 381.055 C 405.962 353.589, 423.035 319.027, 428.499 277.344 C 434.594 230.853, 419.831 181.383, 388.772 144.223 C 367.735 119.053, 331.784 95.832, 301 87.530 C 281.292 82.215, 256.869 80.065, 239.054 82.076 M 233 102.490 C 195.914 108.841, 158.449 129.633, 133.855 157.512 C 119.688 173.570, 110.256 189.827, 103.935 209.076 C 98.402 225.925, 96.634 239.589, 97.281 260.500 C 98.266 292.353, 105.381 314.849, 122.737 340.985 C 131.877 354.749, 149.836 373.219, 163.277 382.679 C 180.505 394.804, 202.412 404.301, 224.174 409.079 C 236.297 411.741, 262.935 412.747, 276.654 411.062 C 341.739 403.067, 394.705 353.838, 407.692 289.270 C 410.462 275.497, 410.206 243.152, 407.209 228.272 C 399.069 187.853, 377.509 154.772, 343.500 130.518 C 322.232 115.351, 301.950 106.735, 277.619 102.534 C 266.896 100.682, 243.688 100.659, 233 102.490 M 236.863 114.072 C 189.737 120.994, 143.275 154.365, 122.696 196.070 C 97.737 246.652, 107.973 310.551, 147.866 353.197 C 169.775 376.619, 202.553 393.978, 235 399.344 C 308.363 411.476, 382.448 358.922, 395.566 285.443 C 397.986 271.888, 398.028 245.988, 395.652 233 C 388.544 194.140, 365.775 159.801, 332.500 137.755 C 314.889 126.087, 294.403 117.819, 275.074 114.580 C 265.127 112.913, 246.445 112.664, 236.863 114.072 M 225.040 140.452 C 222.385 143.650, 226.283 148.566, 229.750 146.393 C 231.945 145.017, 232.615 141.005, 230.837 139.878 C 228.810 138.593, 226.383 138.833, 225.040 140.452 M 243.920 155.294 C 236.963 158.217, 231.980 161.970, 228.670 166.782 C 216.262 184.817, 223.270 208.592, 243.901 218.453 L 250 221.368 250 272.529 C 250 320.823, 250.102 323.783, 251.829 325.345 C 254.133 327.431, 257.391 327.467, 259.429 325.429 C 260.815 324.042, 261 317.957, 261 273.620 C 261 234.938, 261.288 223.019, 262.250 221.804 C 262.938 220.936, 265.971 219.428, 268.990 218.453 C 276.575 216.003, 284.821 207.749, 287.933 199.493 C 290.964 191.450, 290.522 178.981, 286.941 171.500 C 283.910 165.169, 277.863 159.090, 271.474 155.953 C 264.153 152.358, 251.624 152.058, 243.920 155.294 M 316.455 155.455 C 309.759 162.150, 318.301 172.999, 326.806 168.600 C 334.476 164.634, 331.265 153, 322.500 153 C 320.021 153, 318.149 153.760, 316.455 155.455 M 177 165 C 174.142 167.858, 174.369 173.058, 177.477 175.979 C 180.871 179.167, 185.777 178.961, 188.750 175.504 C 191.553 172.245, 191.611 169.046, 188.927 165.635 C 186.283 162.273, 180.058 161.942, 177 165 M 252.500 166.964 C 249.313 168.299, 245.904 171.989, 244.253 175.892 C 242.455 180.143, 241.450 196.858, 242.868 198.936 C 244.288 201.017, 246.722 198.731, 247.981 194.134 C 250.533 184.811, 256.003 180.458, 264.176 181.243 C 269.733 181.777, 272.452 183.811, 274.040 188.621 C 274.653 190.479, 275.570 192, 276.078 192 C 277.318 192, 277.238 185.396, 275.940 180.723 C 273.223 170.941, 260.641 163.555, 252.500 166.964 M 352.571 187.571 C 351.707 188.436, 351 189.754, 351 190.500 C 351 192.422, 353.817 195, 355.916 195 C 357.788 195, 361 192.047, 361 190.326 C 361 188.816, 357.578 186, 355.743 186 C 354.863 186, 353.436 186.707, 352.571 187.571 M 145.074 196.862 C 143.793 199.255, 145.898 202.362, 148.459 201.859 C 150.830 201.393, 152.488 198.714, 151.691 196.636 C 150.831 194.397, 146.310 194.551, 145.074 196.862 M 201.410 202.375 C 200.211 205.498, 201.424 207.500, 204.514 207.500 C 207.165 207.500, 207.500 207.164, 207.500 204.500 C 207.500 201.969, 207.069 201.450, 204.744 201.183 C 202.986 200.981, 201.779 201.412, 201.410 202.375 M 323.557 212.223 C 321.406 215.293, 321.594 216.536, 324.564 218.872 C 327.229 220.968, 329.224 220.792, 332.250 218.193 C 334.533 216.232, 334.462 214.462, 332 212 C 329.346 209.346, 325.500 209.448, 323.557 212.223 M 145.994 221.934 C 134.731 225.360, 127.622 234.686, 127.648 246 C 127.695 266.357, 148.391 278.200, 167.840 268.999 C 171.327 267.350, 174.782 266, 175.517 266 C 176.253 266, 178.472 268.661, 180.448 271.914 C 187.075 282.824, 196.781 288.973, 207.404 288.990 C 213.047 289, 213.477 289.184, 217.170 293.184 C 219.295 295.486, 222.174 299.701, 223.569 302.552 C 225.983 307.486, 226.048 308.059, 224.926 314.504 C 221.828 332.296, 228.958 346.695, 244.195 353.415 C 247.327 354.796, 250.365 356.813, 250.945 357.897 C 251.525 358.981, 252 362.823, 252 366.434 C 252 371.744, 252.397 373.397, 254.073 375.073 C 255.937 376.937, 256.366 377.001, 258.323 375.707 C 260.198 374.467, 260.569 373.082, 261 365.713 C 261.275 361.007, 261.725 356.959, 262 356.716 C 262.275 356.473, 265.473 354.871, 269.107 353.155 C 276.676 349.580, 283.105 343.228, 286.290 336.176 C 288.590 331.085, 289.056 322.151, 287.560 311.839 C 286.515 304.636, 287.051 302.648, 292.067 295.137 L 296.165 289 302.045 289 C 313.951 289, 324.336 282.503, 330.483 271.208 C 332.042 268.344, 333.871 266, 334.547 266 C 335.222 266, 338.863 267.460, 342.638 269.245 C 351.318 273.350, 359.933 273.663, 367.215 270.138 C 379.662 264.112, 385.353 248.710, 379.642 236.500 C 375.365 227.356, 367.893 222.017, 358.227 221.196 C 347.608 220.295, 335.642 229.004, 332.735 239.750 C 332.103 242.088, 331.090 244, 330.485 244 C 329.880 244, 327.971 241.994, 326.244 239.543 C 320.016 230.708, 308.814 225.283, 298.789 226.246 C 291.703 226.927, 281.347 232.504, 277.303 237.816 C 270.978 246.125, 269.273 259.705, 273.502 268.088 C 275.485 272.018, 280.895 278.006, 282.446 277.988 C 283.026 277.981, 284.524 276.394, 285.777 274.461 L 288.053 270.947 285.527 266.636 C 278.487 254.624, 286.621 240.234, 301.038 239.191 C 309.003 238.615, 315.104 241.541, 319.185 247.894 C 321.850 252.042, 322.109 253.166, 321.792 259.194 C 321.493 264.891, 320.983 266.454, 318.364 269.694 C 313.304 275.955, 309.775 277.459, 300.096 277.481 L 291.667 277.500 290.255 281.736 C 289.450 284.149, 286.320 288.755, 282.981 292.440 C 275.834 300.327, 274.664 303.837, 276.550 311.731 C 278.757 320.966, 278.400 327.805, 275.397 333.832 C 267.984 348.707, 248.864 350.177, 238.556 336.662 C 234.429 331.252, 233.442 325.514, 234.960 315.755 C 236.785 304.029, 235.996 300.895, 229.506 294.092 C 226.566 291.009, 222.887 286.015, 221.330 282.993 L 218.500 277.500 210.500 277.500 C 201.339 277.500, 197.660 275.910, 192.742 269.825 C 187.478 263.312, 187.727 252.659, 193.291 246.322 C 198.874 239.962, 208.383 237.305, 215.685 240.064 C 221.892 242.409, 227.942 250.996, 227.968 257.500 C 227.975 259.150, 226.866 262.893, 225.505 265.818 L 223.029 271.136 225.035 275.068 C 227.409 279.722, 228.729 279.938, 232.254 276.250 C 238.684 269.522, 240.880 256.874, 237.394 246.643 C 235.182 240.152, 227.377 231.848, 220.770 228.958 C 208.516 223.598, 193.326 227.562, 184.848 238.334 C 182.612 241.175, 180.447 243.628, 180.038 243.784 C 179.628 243.941, 178.307 241.364, 177.101 238.057 C 174.307 230.395, 171.250 226.802, 164.780 223.578 C 159.462 220.928, 151.572 220.237, 145.994 221.934 M 144.761 233.062 C 139.439 235.872, 136.016 241.859, 137.961 244.958 C 138.742 246.204, 139.520 246.095, 143.297 244.208 C 148.251 241.734, 151.101 241.460, 154.316 243.146 C 157.003 244.556, 158.075 246.225, 160 252 C 160.889 254.667, 162.111 256.500, 163 256.500 C 165.497 256.500, 168.269 249.554, 167.527 245.158 C 165.558 233.508, 154.772 227.777, 144.761 233.062 M 351.020 232.752 C 346.028 235.260, 342.834 240.455, 343.203 245.467 C 343.569 250.437, 345.122 250.602, 348.213 246 C 351.658 240.872, 355.175 240.764, 358.341 245.689 C 359.688 247.785, 361.342 251.300, 362.016 253.500 C 363.794 259.302, 364.519 259.635, 367.938 256.215 C 370.524 253.630, 371 252.389, 371 248.234 C 371 241.838, 367.613 235.334, 362.991 232.855 C 358.672 230.539, 355.478 230.512, 351.020 232.752 M 168.580 289.912 C 166.071 292.684, 166.884 297.094, 170.250 298.968 C 172.720 300.344, 173.280 300.344, 175.750 298.968 C 181.097 295.991, 179.094 288, 173 288 C 171.520 288, 169.532 288.860, 168.580 289.912 M 75.939 334.109 C 77.490 338.584, 88.800 360.647, 92.655 366.716 C 111.896 397.014, 146.405 424.772, 182 438.583 C 230.488 457.397, 280.153 458.433, 324 441.544 C 368.855 424.267, 405.612 392.142, 427.029 351.500 C 432.937 340.289, 432.790 340.368, 420.510 355 C 401.593 377.540, 379.757 398.060, 361.940 410.041 C 305.436 448.033, 235.275 453.477, 174.500 424.585 C 137.866 407.169, 110.305 381.613, 76.767 333.962 L 75.035 331.500 75.939 334.109 M 188.357 349.970 C 187.178 350.458, 185.491 351.889, 184.607 353.151 C 178.759 361.500, 190.210 370.723, 197.750 363.736 C 203.952 357.989, 196.253 346.704, 188.357 349.970 M 310.400 355.425 C 301.246 359.418, 307.514 373.157, 316.984 369.856 C 320.498 368.631, 322 366.355, 322 362.254 C 322 359.515, 318.915 355, 317.043 355 C 316.559 355, 315.564 354.791, 314.832 354.536 C 314.099 354.282, 312.105 354.681, 310.400 355.425" stroke="none" fill="black" fill-rule="evenodd"/>
</svg>